<?xml version="1.0" encoding="utf-8" standalone="no"?>
<!DOCTYPE svg PUBLIC "-//W3C//DTD SVG 1.1//EN"
  "http://www.w3.org/Graphics/SVG/1.1/DTD/svg11.dtd">
<svg xmlns:xlink="http://www.w3.org/1999/xlink" width="281.595089pt" height="266.51625pt" viewBox="0 0 281.595089 266.51625" xmlns="http://www.w3.org/2000/svg" version="1.1">
 <metadata>
  <rdf:RDF xmlns:dc="http://purl.org/dc/elements/1.1/" xmlns:cc="http://creativecommons.org/ns#" xmlns:rdf="http://www.w3.org/1999/02/22-rdf-syntax-ns#">
   <cc:Work>
    <dc:type rdf:resource="http://purl.org/dc/dcmitype/StillImage"/>
    <dc:date>2023-06-29T14:39:04.193879</dc:date>
    <dc:format>image/svg+xml</dc:format>
    <dc:creator>
     <cc:Agent>
      <dc:title>Matplotlib v3.7.1, https://matplotlib.org/</dc:title>
     </cc:Agent>
    </dc:creator>
   </cc:Work>
  </rdf:RDF>
 </metadata>
 <defs>
  <style type="text/css">*{stroke-linejoin: round; stroke-linecap: butt}</style>
 </defs>
 <g id="figure_1">
  <g id="patch_1">
   <path d="M 0 266.51625 
L 281.595089 266.51625 
L 281.595089 0 
L 0 0 
z
" style="fill: #ffffff"/>
  </g>
  <g id="axes_1">
   <g id="patch_2">
    <path d="M 46.965625 228.96 
L 270.165625 228.96 
L 270.165625 7.2 
L 46.965625 7.2 
z
" style="fill: #ffffff"/>
   </g>
   <g id="matplotlib.axis_1">
    <g id="xtick_1">
     <g id="line2d_1">
      <path d="M 52.279911 228.96 
L 52.279911 7.2 
" clip-path="url(#p8b164c0ba8)" style="fill: none; stroke: #b0b0b0; stroke-width: 0.8; stroke-linecap: square"/>
     </g>
     <g id="line2d_2">
      <defs>
       <path id="m555ed2928d" d="M 0 0 
L 0 3.5 
" style="stroke: #000000; stroke-width: 0.8"/>
      </defs>
      <g>
       <use xlink:href="#m555ed2928d" x="52.279911" y="228.96" style="stroke: #000000; stroke-width: 0.8"/>
      </g>
     </g>
     <g id="text_1">
      <!-- 0 -->
      <g transform="translate(49.098661 243.558437) scale(0.1 -0.1)">
       <defs>
        <path id="DejaVuSans-30" d="M 2034 4250 
Q 1547 4250 1301 3770 
Q 1056 3291 1056 2328 
Q 1056 1369 1301 889 
Q 1547 409 2034 409 
Q 2525 409 2770 889 
Q 3016 1369 3016 2328 
Q 3016 3291 2770 3770 
Q 2525 4250 2034 4250 
z
M 2034 4750 
Q 2819 4750 3233 4129 
Q 3647 3509 3647 2328 
Q 3647 1150 3233 529 
Q 2819 -91 2034 -91 
Q 1250 -91 836 529 
Q 422 1150 422 2328 
Q 422 3509 836 4129 
Q 1250 4750 2034 4750 
z
" transform="scale(0.015625)"/>
       </defs>
       <use xlink:href="#DejaVuSans-30"/>
      </g>
     </g>
    </g>
    <g id="xtick_2">
     <g id="line2d_3">
      <path d="M 94.794196 228.96 
L 94.794196 7.2 
" clip-path="url(#p8b164c0ba8)" style="fill: none; stroke: #b0b0b0; stroke-width: 0.8; stroke-linecap: square"/>
     </g>
     <g id="line2d_4">
      <g>
       <use xlink:href="#m555ed2928d" x="94.794196" y="228.96" style="stroke: #000000; stroke-width: 0.8"/>
      </g>
     </g>
     <g id="text_2">
      <!-- 20 -->
      <g transform="translate(88.431696 243.558437) scale(0.1 -0.1)">
       <defs>
        <path id="DejaVuSans-32" d="M 1228 531 
L 3431 531 
L 3431 0 
L 469 0 
L 469 531 
Q 828 903 1448 1529 
Q 2069 2156 2228 2338 
Q 2531 2678 2651 2914 
Q 2772 3150 2772 3378 
Q 2772 3750 2511 3984 
Q 2250 4219 1831 4219 
Q 1534 4219 1204 4116 
Q 875 4013 500 3803 
L 500 4441 
Q 881 4594 1212 4672 
Q 1544 4750 1819 4750 
Q 2544 4750 2975 4387 
Q 3406 4025 3406 3419 
Q 3406 3131 3298 2873 
Q 3191 2616 2906 2266 
Q 2828 2175 2409 1742 
Q 1991 1309 1228 531 
z
" transform="scale(0.015625)"/>
       </defs>
       <use xlink:href="#DejaVuSans-32"/>
       <use xlink:href="#DejaVuSans-30" x="63.623047"/>
      </g>
     </g>
    </g>
    <g id="xtick_3">
     <g id="line2d_5">
      <path d="M 137.308482 228.96 
L 137.308482 7.2 
" clip-path="url(#p8b164c0ba8)" style="fill: none; stroke: #b0b0b0; stroke-width: 0.8; stroke-linecap: square"/>
     </g>
     <g id="line2d_6">
      <g>
       <use xlink:href="#m555ed2928d" x="137.308482" y="228.96" style="stroke: #000000; stroke-width: 0.8"/>
      </g>
     </g>
     <g id="text_3">
      <!-- 40 -->
      <g transform="translate(130.945982 243.558437) scale(0.1 -0.1)">
       <defs>
        <path id="DejaVuSans-34" d="M 2419 4116 
L 825 1625 
L 2419 1625 
L 2419 4116 
z
M 2253 4666 
L 3047 4666 
L 3047 1625 
L 3713 1625 
L 3713 1100 
L 3047 1100 
L 3047 0 
L 2419 0 
L 2419 1100 
L 313 1100 
L 313 1709 
L 2253 4666 
z
" transform="scale(0.015625)"/>
       </defs>
       <use xlink:href="#DejaVuSans-34"/>
       <use xlink:href="#DejaVuSans-30" x="63.623047"/>
      </g>
     </g>
    </g>
    <g id="xtick_4">
     <g id="line2d_7">
      <path d="M 179.822768 228.96 
L 179.822768 7.2 
" clip-path="url(#p8b164c0ba8)" style="fill: none; stroke: #b0b0b0; stroke-width: 0.8; stroke-linecap: square"/>
     </g>
     <g id="line2d_8">
      <g>
       <use xlink:href="#m555ed2928d" x="179.822768" y="228.96" style="stroke: #000000; stroke-width: 0.8"/>
      </g>
     </g>
     <g id="text_4">
      <!-- 60 -->
      <g transform="translate(173.460268 243.558437) scale(0.1 -0.1)">
       <defs>
        <path id="DejaVuSans-36" d="M 2113 2584 
Q 1688 2584 1439 2293 
Q 1191 2003 1191 1497 
Q 1191 994 1439 701 
Q 1688 409 2113 409 
Q 2538 409 2786 701 
Q 3034 994 3034 1497 
Q 3034 2003 2786 2293 
Q 2538 2584 2113 2584 
z
M 3366 4563 
L 3366 3988 
Q 3128 4100 2886 4159 
Q 2644 4219 2406 4219 
Q 1781 4219 1451 3797 
Q 1122 3375 1075 2522 
Q 1259 2794 1537 2939 
Q 1816 3084 2150 3084 
Q 2853 3084 3261 2657 
Q 3669 2231 3669 1497 
Q 3669 778 3244 343 
Q 2819 -91 2113 -91 
Q 1303 -91 875 529 
Q 447 1150 447 2328 
Q 447 3434 972 4092 
Q 1497 4750 2381 4750 
Q 2619 4750 2861 4703 
Q 3103 4656 3366 4563 
z
" transform="scale(0.015625)"/>
       </defs>
       <use xlink:href="#DejaVuSans-36"/>
       <use xlink:href="#DejaVuSans-30" x="63.623047"/>
      </g>
     </g>
    </g>
    <g id="xtick_5">
     <g id="line2d_9">
      <path d="M 222.337054 228.96 
L 222.337054 7.2 
" clip-path="url(#p8b164c0ba8)" style="fill: none; stroke: #b0b0b0; stroke-width: 0.8; stroke-linecap: square"/>
     </g>
     <g id="line2d_10">
      <g>
       <use xlink:href="#m555ed2928d" x="222.337054" y="228.96" style="stroke: #000000; stroke-width: 0.8"/>
      </g>
     </g>
     <g id="text_5">
      <!-- 80 -->
      <g transform="translate(215.974554 243.558437) scale(0.1 -0.1)">
       <defs>
        <path id="DejaVuSans-38" d="M 2034 2216 
Q 1584 2216 1326 1975 
Q 1069 1734 1069 1313 
Q 1069 891 1326 650 
Q 1584 409 2034 409 
Q 2484 409 2743 651 
Q 3003 894 3003 1313 
Q 3003 1734 2745 1975 
Q 2488 2216 2034 2216 
z
M 1403 2484 
Q 997 2584 770 2862 
Q 544 3141 544 3541 
Q 544 4100 942 4425 
Q 1341 4750 2034 4750 
Q 2731 4750 3128 4425 
Q 3525 4100 3525 3541 
Q 3525 3141 3298 2862 
Q 3072 2584 2669 2484 
Q 3125 2378 3379 2068 
Q 3634 1759 3634 1313 
Q 3634 634 3220 271 
Q 2806 -91 2034 -91 
Q 1263 -91 848 271 
Q 434 634 434 1313 
Q 434 1759 690 2068 
Q 947 2378 1403 2484 
z
M 1172 3481 
Q 1172 3119 1398 2916 
Q 1625 2713 2034 2713 
Q 2441 2713 2670 2916 
Q 2900 3119 2900 3481 
Q 2900 3844 2670 4047 
Q 2441 4250 2034 4250 
Q 1625 4250 1398 4047 
Q 1172 3844 1172 3481 
z
" transform="scale(0.015625)"/>
       </defs>
       <use xlink:href="#DejaVuSans-38"/>
       <use xlink:href="#DejaVuSans-30" x="63.623047"/>
      </g>
     </g>
    </g>
    <g id="xtick_6">
     <g id="line2d_11">
      <path d="M 264.851339 228.96 
L 264.851339 7.2 
" clip-path="url(#p8b164c0ba8)" style="fill: none; stroke: #b0b0b0; stroke-width: 0.8; stroke-linecap: square"/>
     </g>
     <g id="line2d_12">
      <g>
       <use xlink:href="#m555ed2928d" x="264.851339" y="228.96" style="stroke: #000000; stroke-width: 0.8"/>
      </g>
     </g>
     <g id="text_6">
      <!-- 100 -->
      <g transform="translate(255.307589 243.558437) scale(0.1 -0.1)">
       <defs>
        <path id="DejaVuSans-31" d="M 794 531 
L 1825 531 
L 1825 4091 
L 703 3866 
L 703 4441 
L 1819 4666 
L 2450 4666 
L 2450 531 
L 3481 531 
L 3481 0 
L 794 0 
L 794 531 
z
" transform="scale(0.015625)"/>
       </defs>
       <use xlink:href="#DejaVuSans-31"/>
       <use xlink:href="#DejaVuSans-30" x="63.623047"/>
       <use xlink:href="#DejaVuSans-30" x="127.246094"/>
      </g>
     </g>
    </g>
    <g id="text_7">
     <!-- confidence when correct -->
     <g transform="translate(97.007031 257.236562) scale(0.1 -0.1)">
      <defs>
       <path id="DejaVuSans-63" d="M 3122 3366 
L 3122 2828 
Q 2878 2963 2633 3030 
Q 2388 3097 2138 3097 
Q 1578 3097 1268 2742 
Q 959 2388 959 1747 
Q 959 1106 1268 751 
Q 1578 397 2138 397 
Q 2388 397 2633 464 
Q 2878 531 3122 666 
L 3122 134 
Q 2881 22 2623 -34 
Q 2366 -91 2075 -91 
Q 1284 -91 818 406 
Q 353 903 353 1747 
Q 353 2603 823 3093 
Q 1294 3584 2113 3584 
Q 2378 3584 2631 3529 
Q 2884 3475 3122 3366 
z
" transform="scale(0.015625)"/>
       <path id="DejaVuSans-6f" d="M 1959 3097 
Q 1497 3097 1228 2736 
Q 959 2375 959 1747 
Q 959 1119 1226 758 
Q 1494 397 1959 397 
Q 2419 397 2687 759 
Q 2956 1122 2956 1747 
Q 2956 2369 2687 2733 
Q 2419 3097 1959 3097 
z
M 1959 3584 
Q 2709 3584 3137 3096 
Q 3566 2609 3566 1747 
Q 3566 888 3137 398 
Q 2709 -91 1959 -91 
Q 1206 -91 779 398 
Q 353 888 353 1747 
Q 353 2609 779 3096 
Q 1206 3584 1959 3584 
z
" transform="scale(0.015625)"/>
       <path id="DejaVuSans-6e" d="M 3513 2113 
L 3513 0 
L 2938 0 
L 2938 2094 
Q 2938 2591 2744 2837 
Q 2550 3084 2163 3084 
Q 1697 3084 1428 2787 
Q 1159 2491 1159 1978 
L 1159 0 
L 581 0 
L 581 3500 
L 1159 3500 
L 1159 2956 
Q 1366 3272 1645 3428 
Q 1925 3584 2291 3584 
Q 2894 3584 3203 3211 
Q 3513 2838 3513 2113 
z
" transform="scale(0.015625)"/>
       <path id="DejaVuSans-66" d="M 2375 4863 
L 2375 4384 
L 1825 4384 
Q 1516 4384 1395 4259 
Q 1275 4134 1275 3809 
L 1275 3500 
L 2222 3500 
L 2222 3053 
L 1275 3053 
L 1275 0 
L 697 0 
L 697 3053 
L 147 3053 
L 147 3500 
L 697 3500 
L 697 3744 
Q 697 4328 969 4595 
Q 1241 4863 1831 4863 
L 2375 4863 
z
" transform="scale(0.015625)"/>
       <path id="DejaVuSans-69" d="M 603 3500 
L 1178 3500 
L 1178 0 
L 603 0 
L 603 3500 
z
M 603 4863 
L 1178 4863 
L 1178 4134 
L 603 4134 
L 603 4863 
z
" transform="scale(0.015625)"/>
       <path id="DejaVuSans-64" d="M 2906 2969 
L 2906 4863 
L 3481 4863 
L 3481 0 
L 2906 0 
L 2906 525 
Q 2725 213 2448 61 
Q 2172 -91 1784 -91 
Q 1150 -91 751 415 
Q 353 922 353 1747 
Q 353 2572 751 3078 
Q 1150 3584 1784 3584 
Q 2172 3584 2448 3432 
Q 2725 3281 2906 2969 
z
M 947 1747 
Q 947 1113 1208 752 
Q 1469 391 1925 391 
Q 2381 391 2643 752 
Q 2906 1113 2906 1747 
Q 2906 2381 2643 2742 
Q 2381 3103 1925 3103 
Q 1469 3103 1208 2742 
Q 947 2381 947 1747 
z
" transform="scale(0.015625)"/>
       <path id="DejaVuSans-65" d="M 3597 1894 
L 3597 1613 
L 953 1613 
Q 991 1019 1311 708 
Q 1631 397 2203 397 
Q 2534 397 2845 478 
Q 3156 559 3463 722 
L 3463 178 
Q 3153 47 2828 -22 
Q 2503 -91 2169 -91 
Q 1331 -91 842 396 
Q 353 884 353 1716 
Q 353 2575 817 3079 
Q 1281 3584 2069 3584 
Q 2775 3584 3186 3129 
Q 3597 2675 3597 1894 
z
M 3022 2063 
Q 3016 2534 2758 2815 
Q 2500 3097 2075 3097 
Q 1594 3097 1305 2825 
Q 1016 2553 972 2059 
L 3022 2063 
z
" transform="scale(0.015625)"/>
       <path id="DejaVuSans-20" transform="scale(0.015625)"/>
       <path id="DejaVuSans-77" d="M 269 3500 
L 844 3500 
L 1563 769 
L 2278 3500 
L 2956 3500 
L 3675 769 
L 4391 3500 
L 4966 3500 
L 4050 0 
L 3372 0 
L 2619 2869 
L 1863 0 
L 1184 0 
L 269 3500 
z
" transform="scale(0.015625)"/>
       <path id="DejaVuSans-68" d="M 3513 2113 
L 3513 0 
L 2938 0 
L 2938 2094 
Q 2938 2591 2744 2837 
Q 2550 3084 2163 3084 
Q 1697 3084 1428 2787 
Q 1159 2491 1159 1978 
L 1159 0 
L 581 0 
L 581 4863 
L 1159 4863 
L 1159 2956 
Q 1366 3272 1645 3428 
Q 1925 3584 2291 3584 
Q 2894 3584 3203 3211 
Q 3513 2838 3513 2113 
z
" transform="scale(0.015625)"/>
       <path id="DejaVuSans-72" d="M 2631 2963 
Q 2534 3019 2420 3045 
Q 2306 3072 2169 3072 
Q 1681 3072 1420 2755 
Q 1159 2438 1159 1844 
L 1159 0 
L 581 0 
L 581 3500 
L 1159 3500 
L 1159 2956 
Q 1341 3275 1631 3429 
Q 1922 3584 2338 3584 
Q 2397 3584 2469 3576 
Q 2541 3569 2628 3553 
L 2631 2963 
z
" transform="scale(0.015625)"/>
       <path id="DejaVuSans-74" d="M 1172 4494 
L 1172 3500 
L 2356 3500 
L 2356 3053 
L 1172 3053 
L 1172 1153 
Q 1172 725 1289 603 
Q 1406 481 1766 481 
L 2356 481 
L 2356 0 
L 1766 0 
Q 1100 0 847 248 
Q 594 497 594 1153 
L 594 3053 
L 172 3053 
L 172 3500 
L 594 3500 
L 594 4494 
L 1172 4494 
z
" transform="scale(0.015625)"/>
      </defs>
      <use xlink:href="#DejaVuSans-63"/>
      <use xlink:href="#DejaVuSans-6f" x="54.980469"/>
      <use xlink:href="#DejaVuSans-6e" x="116.162109"/>
      <use xlink:href="#DejaVuSans-66" x="179.541016"/>
      <use xlink:href="#DejaVuSans-69" x="214.746094"/>
      <use xlink:href="#DejaVuSans-64" x="242.529297"/>
      <use xlink:href="#DejaVuSans-65" x="306.005859"/>
      <use xlink:href="#DejaVuSans-6e" x="367.529297"/>
      <use xlink:href="#DejaVuSans-63" x="430.908203"/>
      <use xlink:href="#DejaVuSans-65" x="485.888672"/>
      <use xlink:href="#DejaVuSans-20" x="547.412109"/>
      <use xlink:href="#DejaVuSans-77" x="579.199219"/>
      <use xlink:href="#DejaVuSans-68" x="660.986328"/>
      <use xlink:href="#DejaVuSans-65" x="724.365234"/>
      <use xlink:href="#DejaVuSans-6e" x="785.888672"/>
      <use xlink:href="#DejaVuSans-20" x="849.267578"/>
      <use xlink:href="#DejaVuSans-63" x="881.054688"/>
      <use xlink:href="#DejaVuSans-6f" x="936.035156"/>
      <use xlink:href="#DejaVuSans-72" x="997.216797"/>
      <use xlink:href="#DejaVuSans-72" x="1036.580078"/>
      <use xlink:href="#DejaVuSans-65" x="1075.443359"/>
      <use xlink:href="#DejaVuSans-63" x="1136.966797"/>
      <use xlink:href="#DejaVuSans-74" x="1191.947266"/>
     </g>
    </g>
   </g>
   <g id="matplotlib.axis_2">
    <g id="ytick_1">
     <g id="line2d_13">
      <path d="M 46.965625 223.68 
L 270.165625 223.68 
" clip-path="url(#p8b164c0ba8)" style="fill: none; stroke: #b0b0b0; stroke-width: 0.8; stroke-linecap: square"/>
     </g>
     <g id="line2d_14">
      <defs>
       <path id="mb9edbd936f" d="M 0 0 
L -3.5 0 
" style="stroke: #000000; stroke-width: 0.8"/>
      </defs>
      <g>
       <use xlink:href="#mb9edbd936f" x="46.965625" y="223.68" style="stroke: #000000; stroke-width: 0.8"/>
      </g>
     </g>
     <g id="text_8">
      <!-- 0 -->
      <g transform="translate(33.603125 227.479219) scale(0.1 -0.1)">
       <use xlink:href="#DejaVuSans-30"/>
      </g>
     </g>
    </g>
    <g id="ytick_2">
     <g id="line2d_15">
      <path d="M 46.965625 181.44 
L 270.165625 181.44 
" clip-path="url(#p8b164c0ba8)" style="fill: none; stroke: #b0b0b0; stroke-width: 0.8; stroke-linecap: square"/>
     </g>
     <g id="line2d_16">
      <g>
       <use xlink:href="#mb9edbd936f" x="46.965625" y="181.44" style="stroke: #000000; stroke-width: 0.8"/>
      </g>
     </g>
     <g id="text_9">
      <!-- 20 -->
      <g transform="translate(27.240625 185.239219) scale(0.1 -0.1)">
       <use xlink:href="#DejaVuSans-32"/>
       <use xlink:href="#DejaVuSans-30" x="63.623047"/>
      </g>
     </g>
    </g>
    <g id="ytick_3">
     <g id="line2d_17">
      <path d="M 46.965625 139.2 
L 270.165625 139.2 
" clip-path="url(#p8b164c0ba8)" style="fill: none; stroke: #b0b0b0; stroke-width: 0.8; stroke-linecap: square"/>
     </g>
     <g id="line2d_18">
      <g>
       <use xlink:href="#mb9edbd936f" x="46.965625" y="139.2" style="stroke: #000000; stroke-width: 0.8"/>
      </g>
     </g>
     <g id="text_10">
      <!-- 40 -->
      <g transform="translate(27.240625 142.999219) scale(0.1 -0.1)">
       <use xlink:href="#DejaVuSans-34"/>
       <use xlink:href="#DejaVuSans-30" x="63.623047"/>
      </g>
     </g>
    </g>
    <g id="ytick_4">
     <g id="line2d_19">
      <path d="M 46.965625 96.96 
L 270.165625 96.96 
" clip-path="url(#p8b164c0ba8)" style="fill: none; stroke: #b0b0b0; stroke-width: 0.8; stroke-linecap: square"/>
     </g>
     <g id="line2d_20">
      <g>
       <use xlink:href="#mb9edbd936f" x="46.965625" y="96.96" style="stroke: #000000; stroke-width: 0.8"/>
      </g>
     </g>
     <g id="text_11">
      <!-- 60 -->
      <g transform="translate(27.240625 100.759219) scale(0.1 -0.1)">
       <use xlink:href="#DejaVuSans-36"/>
       <use xlink:href="#DejaVuSans-30" x="63.623047"/>
      </g>
     </g>
    </g>
    <g id="ytick_5">
     <g id="line2d_21">
      <path d="M 46.965625 54.72 
L 270.165625 54.72 
" clip-path="url(#p8b164c0ba8)" style="fill: none; stroke: #b0b0b0; stroke-width: 0.8; stroke-linecap: square"/>
     </g>
     <g id="line2d_22">
      <g>
       <use xlink:href="#mb9edbd936f" x="46.965625" y="54.72" style="stroke: #000000; stroke-width: 0.8"/>
      </g>
     </g>
     <g id="text_12">
      <!-- 80 -->
      <g transform="translate(27.240625 58.519219) scale(0.1 -0.1)">
       <use xlink:href="#DejaVuSans-38"/>
       <use xlink:href="#DejaVuSans-30" x="63.623047"/>
      </g>
     </g>
    </g>
    <g id="ytick_6">
     <g id="line2d_23">
      <path d="M 46.965625 12.48 
L 270.165625 12.48 
" clip-path="url(#p8b164c0ba8)" style="fill: none; stroke: #b0b0b0; stroke-width: 0.8; stroke-linecap: square"/>
     </g>
     <g id="line2d_24">
      <g>
       <use xlink:href="#mb9edbd936f" x="46.965625" y="12.48" style="stroke: #000000; stroke-width: 0.8"/>
      </g>
     </g>
     <g id="text_13">
      <!-- 100 -->
      <g transform="translate(20.878125 16.279219) scale(0.1 -0.1)">
       <use xlink:href="#DejaVuSans-31"/>
       <use xlink:href="#DejaVuSans-30" x="63.623047"/>
       <use xlink:href="#DejaVuSans-30" x="127.246094"/>
      </g>
     </g>
    </g>
    <g id="text_14">
     <!-- confidence when incorrect -->
     <g transform="translate(14.798438 184.196406) rotate(-90) scale(0.1 -0.1)">
      <use xlink:href="#DejaVuSans-63"/>
      <use xlink:href="#DejaVuSans-6f" x="54.980469"/>
      <use xlink:href="#DejaVuSans-6e" x="116.162109"/>
      <use xlink:href="#DejaVuSans-66" x="179.541016"/>
      <use xlink:href="#DejaVuSans-69" x="214.746094"/>
      <use xlink:href="#DejaVuSans-64" x="242.529297"/>
      <use xlink:href="#DejaVuSans-65" x="306.005859"/>
      <use xlink:href="#DejaVuSans-6e" x="367.529297"/>
      <use xlink:href="#DejaVuSans-63" x="430.908203"/>
      <use xlink:href="#DejaVuSans-65" x="485.888672"/>
      <use xlink:href="#DejaVuSans-20" x="547.412109"/>
      <use xlink:href="#DejaVuSans-77" x="579.199219"/>
      <use xlink:href="#DejaVuSans-68" x="660.986328"/>
      <use xlink:href="#DejaVuSans-65" x="724.365234"/>
      <use xlink:href="#DejaVuSans-6e" x="785.888672"/>
      <use xlink:href="#DejaVuSans-20" x="849.267578"/>
      <use xlink:href="#DejaVuSans-69" x="881.054688"/>
      <use xlink:href="#DejaVuSans-6e" x="908.837891"/>
      <use xlink:href="#DejaVuSans-63" x="972.216797"/>
      <use xlink:href="#DejaVuSans-6f" x="1027.197266"/>
      <use xlink:href="#DejaVuSans-72" x="1088.378906"/>
      <use xlink:href="#DejaVuSans-72" x="1127.742188"/>
      <use xlink:href="#DejaVuSans-65" x="1166.605469"/>
      <use xlink:href="#DejaVuSans-63" x="1228.128906"/>
      <use xlink:href="#DejaVuSans-74" x="1283.109375"/>
     </g>
    </g>
   </g>
   <g id="line2d_25">
    <defs>
     <path id="m6a86fe851a" d="M 0 1.5 
C 0.397805 1.5 0.77937 1.341951 1.06066 1.06066 
C 1.341951 0.77937 1.5 0.397805 1.5 0 
C 1.5 -0.397805 1.341951 -0.77937 1.06066 -1.06066 
C 0.77937 -1.341951 0.397805 -1.5 0 -1.5 
C -0.397805 -1.5 -0.77937 -1.341951 -1.06066 -1.06066 
C -1.341951 -0.77937 -1.5 -0.397805 -1.5 0 
C -1.5 0.397805 -1.341951 0.77937 -1.06066 1.06066 
C -0.77937 1.341951 -0.397805 1.5 0 1.5 
z
" style="stroke: #1f77b4"/>
    </defs>
    <g clip-path="url(#p8b164c0ba8)">
     <use xlink:href="#m6a86fe851a" x="249.971339" y="33.6" style="fill: #1f77b4; stroke: #1f77b4"/>
     <use xlink:href="#m6a86fe851a" x="211.708482" y="118.08" style="fill: #1f77b4; stroke: #1f77b4"/>
     <use xlink:href="#m6a86fe851a" x="241.468482" y="37.824" style="fill: #1f77b4; stroke: #1f77b4"/>
     <use xlink:href="#m6a86fe851a" x="239.342768" y="54.72" style="fill: #1f77b4; stroke: #1f77b4"/>
     <use xlink:href="#m6a86fe851a" x="190.451339" y="120.192" style="fill: #1f77b4; stroke: #1f77b4"/>
     <use xlink:href="#m6a86fe851a" x="189.388482" y="74.784" style="fill: #1f77b4; stroke: #1f77b4"/>
     <use xlink:href="#m6a86fe851a" x="192.577054" y="88.512" style="fill: #1f77b4; stroke: #1f77b4"/>
     <use xlink:href="#m6a86fe851a" x="184.074196" y="94.848" style="fill: #1f77b4; stroke: #1f77b4"/>
     <use xlink:href="#m6a86fe851a" x="196.828482" y="62.112" style="fill: #1f77b4; stroke: #1f77b4"/>
     <use xlink:href="#m6a86fe851a" x="203.205625" y="86.4" style="fill: #1f77b4; stroke: #1f77b4"/>
     <use xlink:href="#m6a86fe851a" x="226.588482" y="88.512" style="fill: #1f77b4; stroke: #1f77b4"/>
     <use xlink:href="#m6a86fe851a" x="213.834196" y="64.224" style="fill: #1f77b4; stroke: #1f77b4"/>
     <use xlink:href="#m6a86fe851a" x="221.274196" y="90.624" style="fill: #1f77b4; stroke: #1f77b4"/>
     <use xlink:href="#m6a86fe851a" x="169.194196" y="99.072" style="fill: #1f77b4; stroke: #1f77b4"/>
     <use xlink:href="#m6a86fe851a" x="232.965625" y="47.328" style="fill: #1f77b4; stroke: #1f77b4"/>
     <use xlink:href="#m6a86fe851a" x="201.079911" y="105.408" style="fill: #1f77b4; stroke: #1f77b4"/>
     <use xlink:href="#m6a86fe851a" x="168.131339" y="69.504" style="fill: #1f77b4; stroke: #1f77b4"/>
     <use xlink:href="#m6a86fe851a" x="240.405625" y="88.512" style="fill: #1f77b4; stroke: #1f77b4"/>
     <use xlink:href="#m6a86fe851a" x="238.279911" y="96.96" style="fill: #1f77b4; stroke: #1f77b4"/>
     <use xlink:href="#m6a86fe851a" x="264.851339" y="12.48" style="fill: #1f77b4; stroke: #1f77b4"/>
     <use xlink:href="#m6a86fe851a" x="215.959911" y="74.784" style="fill: #1f77b4; stroke: #1f77b4"/>
     <use xlink:href="#m6a86fe851a" x="264.851339" y="12.48" style="fill: #1f77b4; stroke: #1f77b4"/>
     <use xlink:href="#m6a86fe851a" x="222.337054" y="96.96" style="fill: #1f77b4; stroke: #1f77b4"/>
     <use xlink:href="#m6a86fe851a" x="200.017054" y="68.448" style="fill: #1f77b4; stroke: #1f77b4"/>
     <use xlink:href="#m6a86fe851a" x="224.462768" y="109.632" style="fill: #1f77b4; stroke: #1f77b4"/>
     <use xlink:href="#m6a86fe851a" x="160.691339" y="120.192" style="fill: #1f77b4; stroke: #1f77b4"/>
     <use xlink:href="#m6a86fe851a" x="219.148482" y="82.176" style="fill: #1f77b4; stroke: #1f77b4"/>
     <use xlink:href="#m6a86fe851a" x="173.445625" y="108.576" style="fill: #1f77b4; stroke: #1f77b4"/>
     <use xlink:href="#m6a86fe851a" x="179.822768" y="118.08" style="fill: #1f77b4; stroke: #1f77b4"/>
     <use xlink:href="#m6a86fe851a" x="222.337054" y="48.384" style="fill: #1f77b4; stroke: #1f77b4"/>
     <use xlink:href="#m6a86fe851a" x="262.725625" y="86.4" style="fill: #1f77b4; stroke: #1f77b4"/>
     <use xlink:href="#m6a86fe851a" x="218.085625" y="147.648" style="fill: #1f77b4; stroke: #1f77b4"/>
     <use xlink:href="#m6a86fe851a" x="219.148482" y="81.12" style="fill: #1f77b4; stroke: #1f77b4"/>
     <use xlink:href="#m6a86fe851a" x="201.079911" y="75.84" style="fill: #1f77b4; stroke: #1f77b4"/>
     <use xlink:href="#m6a86fe851a" x="209.582768" y="106.464" style="fill: #1f77b4; stroke: #1f77b4"/>
     <use xlink:href="#m6a86fe851a" x="152.188482" y="130.752" style="fill: #1f77b4; stroke: #1f77b4"/>
     <use xlink:href="#m6a86fe851a" x="162.817054" y="162.432" style="fill: #1f77b4; stroke: #1f77b4"/>
     <use xlink:href="#m6a86fe851a" x="230.839911" y="108.576" style="fill: #1f77b4; stroke: #1f77b4"/>
     <use xlink:href="#m6a86fe851a" x="186.199911" y="118.08" style="fill: #1f77b4; stroke: #1f77b4"/>
     <use xlink:href="#m6a86fe851a" x="184.074196" y="109.632" style="fill: #1f77b4; stroke: #1f77b4"/>
     <use xlink:href="#m6a86fe851a" x="178.759911" y="103.296" style="fill: #1f77b4; stroke: #1f77b4"/>
     <use xlink:href="#m6a86fe851a" x="212.771339" y="148.704" style="fill: #1f77b4; stroke: #1f77b4"/>
     <use xlink:href="#m6a86fe851a" x="218.085625" y="82.176" style="fill: #1f77b4; stroke: #1f77b4"/>
     <use xlink:href="#m6a86fe851a" x="186.199911" y="171.936" style="fill: #1f77b4; stroke: #1f77b4"/>
     <use xlink:href="#m6a86fe851a" x="224.462768" y="89.568" style="fill: #1f77b4; stroke: #1f77b4"/>
     <use xlink:href="#m6a86fe851a" x="103.297054" y="149.76" style="fill: #1f77b4; stroke: #1f77b4"/>
     <use xlink:href="#m6a86fe851a" x="158.565625" y="128.64" style="fill: #1f77b4; stroke: #1f77b4"/>
     <use xlink:href="#m6a86fe851a" x="224.462768" y="109.632" style="fill: #1f77b4; stroke: #1f77b4"/>
     <use xlink:href="#m6a86fe851a" x="194.702768" y="111.744" style="fill: #1f77b4; stroke: #1f77b4"/>
     <use xlink:href="#m6a86fe851a" x="215.959911" y="46.272" style="fill: #1f77b4; stroke: #1f77b4"/>
     <use xlink:href="#m6a86fe851a" x="264.851339" y="31.488" style="fill: #1f77b4; stroke: #1f77b4"/>
     <use xlink:href="#m6a86fe851a" x="196.828482" y="158.208" style="fill: #1f77b4; stroke: #1f77b4"/>
     <use xlink:href="#m6a86fe851a" x="154.314196" y="115.968" style="fill: #1f77b4; stroke: #1f77b4"/>
     <use xlink:href="#m6a86fe851a" x="209.582768" y="132.864" style="fill: #1f77b4; stroke: #1f77b4"/>
     <use xlink:href="#m6a86fe851a" x="226.588482" y="120.192" style="fill: #1f77b4; stroke: #1f77b4"/>
     <use xlink:href="#m6a86fe851a" x="194.702768" y="162.432" style="fill: #1f77b4; stroke: #1f77b4"/>
     <use xlink:href="#m6a86fe851a" x="227.651339" y="63.168" style="fill: #1f77b4; stroke: #1f77b4"/>
     <use xlink:href="#m6a86fe851a" x="194.702768" y="139.2" style="fill: #1f77b4; stroke: #1f77b4"/>
     <use xlink:href="#m6a86fe851a" x="239.342768" y="56.832" style="fill: #1f77b4; stroke: #1f77b4"/>
     <use xlink:href="#m6a86fe851a" x="228.714196" y="106.464" style="fill: #1f77b4; stroke: #1f77b4"/>
     <use xlink:href="#m6a86fe851a" x="187.262768" y="80.064" style="fill: #1f77b4; stroke: #1f77b4"/>
     <use xlink:href="#m6a86fe851a" x="223.399911" y="86.4" style="fill: #1f77b4; stroke: #1f77b4"/>
     <use xlink:href="#m6a86fe851a" x="203.205625" y="80.064" style="fill: #1f77b4; stroke: #1f77b4"/>
     <use xlink:href="#m6a86fe851a" x="254.222768" y="86.4" style="fill: #1f77b4; stroke: #1f77b4"/>
     <use xlink:href="#m6a86fe851a" x="219.148482" y="101.184" style="fill: #1f77b4; stroke: #1f77b4"/>
     <use xlink:href="#m6a86fe851a" x="163.879911" y="149.76" style="fill: #1f77b4; stroke: #1f77b4"/>
     <use xlink:href="#m6a86fe851a" x="198.954196" y="98.016" style="fill: #1f77b4; stroke: #1f77b4"/>
     <use xlink:href="#m6a86fe851a" x="181.948482" y="118.08" style="fill: #1f77b4; stroke: #1f77b4"/>
     <use xlink:href="#m6a86fe851a" x="192.577054" y="123.36" style="fill: #1f77b4; stroke: #1f77b4"/>
     <use xlink:href="#m6a86fe851a" x="247.845625" y="68.448" style="fill: #1f77b4; stroke: #1f77b4"/>
     <use xlink:href="#m6a86fe851a" x="222.337054" y="75.84" style="fill: #1f77b4; stroke: #1f77b4"/>
     <use xlink:href="#m6a86fe851a" x="247.845625" y="139.2" style="fill: #1f77b4; stroke: #1f77b4"/>
     <use xlink:href="#m6a86fe851a" x="228.714196" y="82.176" style="fill: #1f77b4; stroke: #1f77b4"/>
     <use xlink:href="#m6a86fe851a" x="206.394196" y="93.792" style="fill: #1f77b4; stroke: #1f77b4"/>
     <use xlink:href="#m6a86fe851a" x="259.537054" y="48.384" style="fill: #1f77b4; stroke: #1f77b4"/>
     <use xlink:href="#m6a86fe851a" x="196.828482" y="139.2" style="fill: #1f77b4; stroke: #1f77b4"/>
     <use xlink:href="#m6a86fe851a" x="194.702768" y="111.744" style="fill: #1f77b4; stroke: #1f77b4"/>
     <use xlink:href="#m6a86fe851a" x="190.451339" y="107.52" style="fill: #1f77b4; stroke: #1f77b4"/>
     <use xlink:href="#m6a86fe851a" x="226.588482" y="52.608" style="fill: #1f77b4; stroke: #1f77b4"/>
     <use xlink:href="#m6a86fe851a" x="211.708482" y="88.512" style="fill: #1f77b4; stroke: #1f77b4"/>
     <use xlink:href="#m6a86fe851a" x="252.097054" y="73.728" style="fill: #1f77b4; stroke: #1f77b4"/>
     <use xlink:href="#m6a86fe851a" x="215.959911" y="99.072" style="fill: #1f77b4; stroke: #1f77b4"/>
     <use xlink:href="#m6a86fe851a" x="247.845625" y="82.176" style="fill: #1f77b4; stroke: #1f77b4"/>
     <use xlink:href="#m6a86fe851a" x="224.462768" y="101.184" style="fill: #1f77b4; stroke: #1f77b4"/>
     <use xlink:href="#m6a86fe851a" x="175.571339" y="118.08" style="fill: #1f77b4; stroke: #1f77b4"/>
     <use xlink:href="#m6a86fe851a" x="246.782768" y="31.488" style="fill: #1f77b4; stroke: #1f77b4"/>
     <use xlink:href="#m6a86fe851a" x="264.851339" y="118.08" style="fill: #1f77b4; stroke: #1f77b4"/>
     <use xlink:href="#m6a86fe851a" x="232.965625" y="44.16" style="fill: #1f77b4; stroke: #1f77b4"/>
     <use xlink:href="#m6a86fe851a" x="209.582768" y="88.512" style="fill: #1f77b4; stroke: #1f77b4"/>
     <use xlink:href="#m6a86fe851a" x="221.274196" y="50.496" style="fill: #1f77b4; stroke: #1f77b4"/>
     <use xlink:href="#m6a86fe851a" x="202.142768" y="98.016" style="fill: #1f77b4; stroke: #1f77b4"/>
     <use xlink:href="#m6a86fe851a" x="205.331339" y="96.96" style="fill: #1f77b4; stroke: #1f77b4"/>
     <use xlink:href="#m6a86fe851a" x="232.965625" y="65.28" style="fill: #1f77b4; stroke: #1f77b4"/>
     <use xlink:href="#m6a86fe851a" x="188.325625" y="98.016" style="fill: #1f77b4; stroke: #1f77b4"/>
     <use xlink:href="#m6a86fe851a" x="215.959911" y="67.392" style="fill: #1f77b4; stroke: #1f77b4"/>
     <use xlink:href="#m6a86fe851a" x="209.582768" y="54.72" style="fill: #1f77b4; stroke: #1f77b4"/>
     <use xlink:href="#m6a86fe851a" x="190.451339" y="52.608" style="fill: #1f77b4; stroke: #1f77b4"/>
     <use xlink:href="#m6a86fe851a" x="224.462768" y="115.968" style="fill: #1f77b4; stroke: #1f77b4"/>
     <use xlink:href="#m6a86fe851a" x="224.462768" y="69.504" style="fill: #1f77b4; stroke: #1f77b4"/>
    </g>
   </g>
   <g id="patch_3">
    <path d="M 46.965625 228.96 
L 46.965625 7.2 
" style="fill: none; stroke: #000000; stroke-width: 0.8; stroke-linejoin: miter; stroke-linecap: square"/>
   </g>
   <g id="patch_4">
    <path d="M 270.165625 228.96 
L 270.165625 7.2 
" style="fill: none; stroke: #000000; stroke-width: 0.8; stroke-linejoin: miter; stroke-linecap: square"/>
   </g>
   <g id="patch_5">
    <path d="M 46.965625 228.96 
L 270.165625 228.96 
" style="fill: none; stroke: #000000; stroke-width: 0.8; stroke-linejoin: miter; stroke-linecap: square"/>
   </g>
   <g id="patch_6">
    <path d="M 46.965625 7.2 
L 270.165625 7.2 
" style="fill: none; stroke: #000000; stroke-width: 0.8; stroke-linejoin: miter; stroke-linecap: square"/>
   </g>
  </g>
 </g>
 <defs>
  <clipPath id="p8b164c0ba8">
   <rect x="46.965625" y="7.2" width="223.2" height="221.76"/>
  </clipPath>
 </defs>
</svg>
